<?xml version='1.0' encoding='utf-8'?>
<svg xmlns="http://www.w3.org/2000/svg" viewBox="0 0 3201.3333 3201.3333" width="3201.3333" height="3201.3333">
  <g id="layer_static">
    <path id="path1" d="M 2.32031,24003.2 H 24002.3 V 3.17188 H 2.32031 V 24003.2" style="fill:#fefefe;fill-opacity:1;fill-rule:evenodd;stroke:none" transform="matrix(0.13333333,0,0,-0.13333333,0,3201.3333)" />
    <path id="path2" d="m 10483.6,15475.1 c 282.1,-342.8 749.8,-1199.2 848.4,-1514.8 76.6,-245.2 207,-259.9 281.7,-220.5 100.1,52.9 36.7,279.2 94.4,381.8 72,128 766.3,42 816.4,-258.7 90.1,-540.7 -687.5,-494.5 -716.6,-407.1 -13,38.9 -334.2,129 -200.1,-78.8 608.8,-944 591.7,-1609.8 412.2,-2701.8 -68.8,-418.5 25.7,-2112.69 -54.5,-2167.16 -80.3,-54.46 -968.9,-154.79 -1003.3,20.07 -24.2,122.83 -8.8,472 -13.3,667.91 -4.4,188.46 -9.9,137.1 -213.6,138.9 -983.28,8.71 -5427.49,54.76 -6266.74,5.78 -155.87,-9.1 -140.88,12.28 -142.62,-130.24 -1.82,-148.67 3.47,-399.74 -2.84,-550.19 -10.11,-241.26 -314.08,-241.01 -524.66,-241.01 -260.86,0 -501.67,48.73 -530.33,149.07 -22.34,78.18 -2.9,1179.75 6.77,1662.47 17.78,887.6 -259.41,1487.3 19.14,2286.5 100.87,289.5 260.83,556.7 386.12,842.4 74.98,171 107.5,161.8 -60.19,157.3 -73.02,-2 -151.21,-9.4 -151.21,-32.3 0,-43 -2.87,-83.2 -172,-77.4 -787.62,26.7 -700.69,693.5 -131.9,736.7 226.47,17.2 441.46,0 441.46,-123.2 0,-123.3 -20.07,-260.9 25.81,-272.4 45.86,-11.4 220.73,-37.2 246.53,48.8 25.79,86 693.72,1473.4 940.26,1725.7 331.32,339 4334.56,198.8 5325.4,106.5 202.4,-18.8 211.8,0.7 339.3,-154.3" style="fill:#000000;fill-opacity:1;fill-rule:evenodd;stroke:none" transform="matrix(0.13333333,0,0,-0.13333333,0,3201.3333)" />
    <path id="path3" d="m 10941.9,13639.5 c -111.6,0 -5777.87,-7.4 -6636.72,30.4 -102.81,4.5 -185.67,29.1 -180.9,116.9 6.49,119.8 467.8,1200.1 539.74,1314.7 154.79,246.5 309.6,338.3 584.79,344 686.53,14.3 4904.49,160.6 5153.49,-111.7 260,-284.3 632.6,-1094.5 724.5,-1416.7 41.3,-144.9 -14.2,-277.6 -184.9,-277.6" style="fill:#fefefe;fill-opacity:1;fill-rule:evenodd;stroke:none" transform="matrix(0.13333333,0,0,-0.13333333,0,3201.3333)" />
    <path id="path4" d="m 4666.72,12172 c 295.28,-263.8 627.8,-659.4 599.14,-725.3 -54.84,-126.1 -1172.59,210.8 -1401.79,220.7 -475.09,20.7 -563.01,795.8 -358.36,969 229.17,193.9 998.17,-319 1161.01,-464.4" style="fill:#fefefe;fill-opacity:1;fill-rule:evenodd;stroke:none" transform="matrix(0.13333333,0,0,-0.13333333,0,3201.3333)" />
    <path id="path5" d="m 10064.4,11452.6 c 74.6,-109 673.7,65.9 994.8,143.3 113.1,27.2 223.6,0.4 310.1,33.4 920.5,351.1 413.6,1041.6 300.5,1044.5 -362.3,9 -1777.28,-970 -1605.4,-1221.2" style="fill:#fefefe;fill-opacity:1;fill-rule:evenodd;stroke:none" transform="matrix(0.13333333,0,0,-0.13333333,0,3201.3333)" />
    <path id="path6" d="m 6201.54,11094.2 c 605.14,-7.9 3054.47,-39.4 3160.59,33.1 117.53,80.2 805.47,758.2 799.77,849.9 -10.7,171.4 -188.6,148.6 -305.43,149.7 -754.02,7.2 -3696.78,7.7 -4460.5,-9 -130.73,-2.9 -353.28,-16.3 -230.58,-238.1 151.79,-274.4 698.24,-781.2 1036.15,-785.6" style="fill:#a1a1a1;fill-opacity:1;fill-rule:evenodd;stroke:none" transform="matrix(0.13333333,0,0,-0.13333333,0,3201.3333)" />
    <path id="path7" d="m 5113.32,11877 h 5082.48 v 85.9 H 5113.32 v -85.9" style="fill:#000000;fill-opacity:1;fill-rule:evenodd;stroke:none" transform="matrix(0.13333333,0,0,-0.13333333,0,3201.3333)" />
    <path id="path8" d="m 5207.92,11687.8 h 4876.18 v 86 H 5207.92 v -86" style="fill:#000000;fill-opacity:1;fill-rule:evenodd;stroke:none" transform="matrix(0.13333333,0,0,-0.13333333,0,3201.3333)" />
    <path id="path9" d="m 5354.13,11544.4 h 4609.55 v 86 H 5354.13 v -86" style="fill:#000000;fill-opacity:1;fill-rule:evenodd;stroke:none" transform="matrix(0.13333333,0,0,-0.13333333,0,3201.3333)" />
    <path id="path10" d="m 5485.98,11383.8 h 4308.57 v 86 H 5485.98 v -86" style="fill:#000000;fill-opacity:1;fill-rule:evenodd;stroke:none" transform="matrix(0.13333333,0,0,-0.13333333,0,3201.3333)" />
    <path id="path11" d="m 5652.26,11194.7 h 3984.63 v 86 H 5652.26 v -86" style="fill:#000000;fill-opacity:1;fill-rule:evenodd;stroke:none" transform="matrix(0.13333333,0,0,-0.13333333,0,3201.3333)" />
    <path id="path12" d="m 7679.88,11183.7 c 130.08,0 235.54,197.4 235.54,440.9 0,243.5 -105.46,440.8 -235.54,440.8 -130.08,0 -235.54,-197.3 -235.54,-440.8 0,-243.5 105.46,-440.9 235.54,-440.9" style="fill:#a1a1a1;fill-opacity:1;fill-rule:evenodd;stroke:none" transform="matrix(0.13333333,0,0,-0.13333333,0,3201.3333)" />
    <path id="path13" d="m 4470.05,10613.6 c 273.68,-4.1 1336.48,-22.3 1623.65,-58.3 82.56,-10.3 71.94,-4.1 79.42,-80.6 10.59,-108.5 -18.02,-83.8 101.51,-84 446.46,-1.2 2334.4,-5.2 2707.6,7 83.58,2.8 65.22,-7.8 68.03,82.9 2.75,88.6 -16.79,73.5 66.62,74.8 l 1565.32,24.7 c 222.2,3.5 219.3,47.7 113.7,-124.1 -105.5,-171.5 -294.6,-466.43 -402.1,-558.02 -154.8,-131.86 -395.61,-280.92 -1034.88,-295.25 -554.97,-12.44 -3184.04,-14.05 -3907.08,13.87 -467.88,18.05 -800.32,589.6 -1016.76,948.5 -39.01,64.7 -46.1,49.7 34.97,48.5" style="fill:#a1a1a1;fill-opacity:1;fill-rule:evenodd;stroke:none" transform="matrix(0.13333333,0,0,-0.13333333,0,3201.3333)" />
    <path id="path14" d="m 11626.3,9892.46 c -140.4,-151.93 -685.1,-240.8 -731,-131.87 -45.8,108.94 28.7,329.71 235.1,513.11 206.4,183.5 613.5,407.1 647.9,349.7 95.1,-158.5 -47.4,-617.9 -152,-730.94" style="fill:#fefefe;fill-opacity:1;fill-rule:evenodd;stroke:none" transform="matrix(0.13333333,0,0,-0.13333333,0,3201.3333)" />
    <path id="path15" d="m 3809.04,10538.9 c 212.13,-131.8 306.75,-215 464.41,-438.6 455.61,-646.1 -499.03,-310.75 -536.06,-278.03 -172,151.93 -338.26,645.03 -286.66,756.83 51.59,111.8 358.31,-40.2 358.31,-40.2" style="fill:#fefefe;fill-opacity:1;fill-rule:evenodd;stroke:none" transform="matrix(0.13333333,0,0,-0.13333333,0,3201.3333)" />
    <path id="path16" d="m 11428.5,10037.3 c 57.8,0 104.6,46.8 104.6,104.6 0,57.8 -46.8,104.7 -104.6,104.7 -57.8,0 -104.6,-46.9 -104.6,-104.7 0,-57.8 46.8,-104.6 104.6,-104.6" style="fill:#a1a1a1;fill-opacity:1;fill-rule:evenodd;stroke:none" transform="matrix(0.13333333,0,0,-0.13333333,0,3201.3333)" />
    <path id="path17" d="m 3844.56,10047.9 c 57.79,0 104.63,46.8 104.63,104.6 0,57.8 -46.84,104.6 -104.63,104.6 -57.79,0 -104.63,-46.8 -104.63,-104.6 0,-57.8 46.84,-104.6 104.63,-104.6" style="fill:#a1a1a1;fill-opacity:1;fill-rule:evenodd;stroke:none" transform="matrix(0.13333333,0,0,-0.13333333,0,3201.3333)" />
    <path id="path18" d="M 10548.4,13685 9946.28,12125.9" style="fill:none;stroke:#fefefe;stroke-width:36.6899;stroke-linecap:butt;stroke-linejoin:miter;stroke-miterlimit:22.9256;stroke-dasharray:none;stroke-opacity:1" transform="matrix(0.13333333,0,0,-0.13333333,0,3201.3333)" />
    <path id="path19" d="m 4733.79,13704.8 609.18,-1588.2" style="fill:none;stroke:#fefefe;stroke-width:36.6899;stroke-linecap:butt;stroke-linejoin:miter;stroke-miterlimit:22.9256;stroke-dasharray:none;stroke-opacity:1" transform="matrix(0.13333333,0,0,-0.13333333,0,3201.3333)" />
    <path id="path20" d="m 22118.9,12342.8 c 8.9,-788.6 6.7,-1610.6 5.2,-1932 -0.7,-173.1 -36.5,-127.5 106.7,-170.3 277.1,-82.9 480,-120.5 432.4,-431.8 -21.4,-140.16 -8.6,-108.17 -132.5,-64.15 -148.8,52.87 -398.6,134.25 -407.3,87.98 -4,-21.65 -6.3,-806.05 -7.6,-1854.22 0,-82.69 148.1,-161.38 155.6,-387.38 11.7,-355.27 -156.3,-357.58 -156.3,-477.48 -0.5,-756.65 -0.6,-1570.98 -0.6,-2301.56 0,-86.57 148.7,-161.19 148.7,-388.05 0,-265.34 -148.6,-348.41 -148.6,-449.98 0.1,-509.33 0.3,-929.13 0.4,-1187.89 0.3,-513.55 -110,-1279.69 -421,-1664.04 -297.2,-367.422 -540.8,-532.535 -1300.4,-635.742 -759.6,-103.204 -2349,-132.086 -2889.8,-8.239 -1419,324.965 -1602.4,1060.591 -1642.6,2357.791 -15.1,488.45 -7.2,922.46 -2.8,1095.88 3.6,141.13 9.5,37.19 -69.2,136.11 -32.6,41.02 -64.9,110.22 -68.9,224.78 -8.2,239.44 65.1,441.73 99.1,473.72 34.1,31.99 42.3,50.57 41.3,69.15 -0.9,16.46 -9.1,1855.86 -11,2274.98 -0.6,136.21 4.6,52.23 -66.3,169.57 -36.2,60.07 -72.7,149.33 -66.2,259.5 15.6,265.08 134.4,292.37 141.8,534.86 11.6,376.11 1.5,1353.6 -2.2,1676.14 -1.6,135.15 25.6,113.46 -97.9,69.98 -85.2,-30 -209.8,-71.65 -301.8,-93 -262.4,-60.87 -220.6,453.09 300.9,524.59 128.2,17.6 97.1,-27.6 92.7,134.1 -30.7,1116.7 -219.3,3028.5 618.8,4017 573.8,676.8 1587.5,796.6 2415,806.7 1255.7,15.4 2627.6,-208.5 3046.6,-1589.3 143.3,-472.3 182.5,-807.4 187.8,-1277.7" style="fill:#000000;fill-opacity:1;fill-rule:evenodd;stroke:none" transform="matrix(0.13333333,0,0,-0.13333333,0,3201.3333)" />
    <path id="path21" d="m 21099.1,8601.08 c 63.5,311.05 398.7,1970.32 361.3,2104.92 -282.3,1016.5 -5071.3,882.4 -4987,-45.4 25.6,-280.8 312.1,-1715.54 378.5,-2045.79 17.4,-86.65 -4.6,-71.8 80.8,-51.81 273.9,64.14 1324.3,297.34 2005.3,268.82 688.1,-28.82 1813.4,-221.22 2088.7,-269.72 75.7,-13.33 58.9,-27.55 72.4,38.98" style="fill:#fefefe;fill-opacity:1;fill-rule:evenodd;stroke:none" transform="matrix(0.13333333,0,0,-0.13333333,0,3201.3333)" />
    <path id="path22" d="m 17591.5,14825.2 c 458.1,-4.1 2445.7,-20.7 2836.1,-2.3 60.8,2.8 90.7,-6 37.8,43.1 -63.1,58.4 -214.3,165.6 -298.3,211.6 -158,86.6 -1274.3,119.2 -1481,105.7 -180.9,-11.9 -793.5,-24 -934.5,-133.5 -55,-42.7 -131.4,-110.8 -186,-160.6 -89.7,-81.6 -94.1,-62.9 25.9,-64" style="fill:#a1a1a1;fill-opacity:1;fill-rule:evenodd;stroke:none" transform="matrix(0.13333333,0,0,-0.13333333,0,3201.3333)" />
    <path id="path23" d="m 17222.6,14665.2 c -405.9,-429.9 -712.3,-454.9 -926.8,-1151.8 -74.3,-241.5 -80.5,-289 -97,-231.2 -159.2,557.6 297.4,1128 784.4,1345.9 235.3,105.2 239.4,37.1 239.4,37.1" style="fill:#fefefe;fill-opacity:1;fill-rule:evenodd;stroke:none" transform="matrix(0.13333333,0,0,-0.13333333,0,3201.3333)" />
    <path id="path24" d="m 20897.9,14548.1 c 446.9,-353.5 573.6,-581 781.5,-1093.7 79.7,-196.6 68,-250.7 98.6,26.9 46.5,422.7 -227.9,788.1 -571.5,1010.7 -103.6,67 -201.6,108.9 -281.1,135 -292.7,96.2 -177.2,39.6 -27.5,-78.9" style="fill:#fefefe;fill-opacity:1;fill-rule:evenodd;stroke:none" transform="matrix(0.13333333,0,0,-0.13333333,0,3201.3333)" />
    <path id="path25" d="m 21828.9,9992.44 c -7,-328.04 -52.1,-2428.31 -75,-2855.63 -4.1,-77.29 8.4,-66.27 -48.8,-109.99 -89.9,-68.61 -297.3,-217.8 -392,-285.73 -65.1,-46.65 -49.4,-52.48 -47.1,38.61 6.7,268.21 34.1,1196.59 97.3,1555.05 74.3,421.08 320,1665.75 353,1698.85 18.9,18.8 53.2,16.8 79.2,11.6 45.6,-9.2 34.4,-5.7 33.4,-52.76" style="fill:#fefefe;fill-opacity:1;fill-rule:evenodd;stroke:none" transform="matrix(0.13333333,0,0,-0.13333333,0,3201.3333)" />
    <path id="path26" d="m 21876.2,10571.4 c -0.3,-65.3 -1.4,-228.5 -1.8,-290 -0.2,-27.9 6.1,-24.4 -18,-23.5 -36.3,1.3 -115.4,7.6 -115.4,37.8 0,45.9 78.2,248.7 114.4,285.4 25.4,25.8 20.9,11.9 20.8,-9.7" style="fill:#fefefe;fill-opacity:1;fill-rule:evenodd;stroke:none" transform="matrix(0.13333333,0,0,-0.13333333,0,3201.3333)" />
    <path id="path27" d="m 21752.7,6356.53 c -4.2,-338.56 -24,-1856.85 -29.1,-2243.73 -1.4,-109.77 21.5,-82.06 -75.8,-116.67 -82,-29.15 -212.9,-75.15 -296.4,-101.73 -99.3,-31.57 -79,-38.73 -81.7,61.78 -11.2,417.43 -47.3,2287.45 -17.8,2302.15 26,13.03 323.4,108.34 447.6,147.93 70.6,22.53 54.2,32.69 53.2,-49.73" style="fill:#fefefe;fill-opacity:1;fill-rule:evenodd;stroke:none" transform="matrix(0.13333333,0,0,-0.13333333,0,3201.3333)" />
    <path id="path28" d="m 21687.4,3836.32 c 13.9,-578.2 -383,-811.93 -410.8,-284.05 -4.6,86.86 -4.1,147.77 -2.7,184.85 1.9,51.9 -6.7,41.22 38.2,55.74 l 309.3,99.99 c 80.9,26.12 63.8,34.29 66,-56.53" style="fill:#fefefe;fill-opacity:1;fill-rule:evenodd;stroke:none" transform="matrix(0.13333333,0,0,-0.13333333,0,3201.3333)" />
    <path id="path29" d="m 21232.2,2258.47 c 41.3,-211.55 162.8,-848.07 135.3,-885.89 -446.4,-613.963 -1595.1,-735.064 -2299.5,-730.685 -771,4.785 -1765.1,101.875 -2366.5,654.415 -102.2,93.92 -84.9,61.2 -63.2,196.87 32.3,201.93 99.3,610.76 137.1,770.46 23.6,99.88 21.4,71.82 54.6,-1.64 499.2,-1103.6 3498.6,-1137.87 4331.5,20.29 59.9,83.33 58.7,37.53 70.7,-23.82" style="fill:#fefefe;fill-opacity:1;fill-rule:evenodd;stroke:none" transform="matrix(0.13333333,0,0,-0.13333333,0,3201.3333)" />
    <path id="path30" d="m 16708.4,3705.53 c 14,-650.34 -433.8,-482.57 -427.2,-1.34 1.1,78.73 5.2,138.01 8.9,176.82 6.6,68.34 -4.8,58.79 55,35.45 l 299.6,-116.96 c 76.8,-30 61.9,-8.82 63.7,-93.97" style="fill:#fefefe;fill-opacity:1;fill-rule:evenodd;stroke:none" transform="matrix(0.13333333,0,0,-0.13333333,0,3201.3333)" />
    <path id="path31" d="m 16736.5,6237.24 c 1.8,-297.58 13,-2350.06 -2.3,-2373.03 -14.1,-21.18 -343.8,114.69 -438.9,154.44 -33.2,13.86 -25.4,3.83 -26.1,41.92 -4.9,261.03 -42.2,2076.38 -20.5,2317.99 2.9,31.44 -0.9,29.2 28.7,22.65 81.4,-17.98 334.7,-91.71 425.8,-118.43 42.2,-12.37 33.1,-0.71 33.3,-45.54" style="fill:#fefefe;fill-opacity:1;fill-rule:evenodd;stroke:none" transform="matrix(0.13333333,0,0,-0.13333333,0,3201.3333)" />
    <path id="path32" d="m 16138.1,9999.23 c 6.6,-370.57 65.9,-2465.27 76.4,-2836.09 1.8,-60.77 -10.8,-46.26 30.2,-79.29 103.7,-83.71 454.4,-362.15 454.4,-298.83 0,74.31 12.4,1201.36 -99,1750.41 -98.2,483.48 -247.6,1346.3 -301.6,1532.87 -25.6,88.4 -27.7,-17.8 -94.7,-17.8 -79.7,0 -67,26.1 -65.7,-51.27" style="fill:#fefefe;fill-opacity:1;fill-rule:evenodd;stroke:none" transform="matrix(0.13333333,0,0,-0.13333333,0,3201.3333)" />
    <path id="path33" d="m 16128.4,10537.9 c 0.4,-66 2.8,-163.8 4.2,-216.8 1,-39.5 -8.6,-35.6 22.4,-42.7 39.7,-9.1 121,-22.8 121,17.8 0,38 -73.6,176.7 -116.5,254.2 -39,70.5 -31.7,68.9 -31.1,-12.5" style="fill:#fefefe;fill-opacity:1;fill-rule:evenodd;stroke:none" transform="matrix(0.13333333,0,0,-0.13333333,0,3201.3333)" />
    <path id="path34" d="m 21438.4,1261.51 c -39.2,-80.51 -152.7,-274.518 -350.9,-355.018 -198.1,-80.496 -299.3,-163.062 -328.2,-233.246 -28.9,-70.18 -14.4,-94.949 55.8,-80.504 70.1,14.449 390.4,80.762 600.6,264.215 210.2,183.453 324.1,332.333 394.3,485.083 45.3,98.65 104.4,252.41 128.9,346.71 105.9,407.63 -454,-331.83 -500.5,-427.24" style="fill:#fefefe;fill-opacity:1;fill-rule:evenodd;stroke:none" transform="matrix(0.13333333,0,0,-0.13333333,0,3201.3333)" />
    <path id="path35" d="m 17132.7,784.754 c 99.1,-35.094 115.6,-191.973 66,-189.906 -49.5,2.066 -483,148.621 -625.4,272.472 -142.4,123.848 -313.8,322.02 -400.4,487.14 -86.7,165.13 -183.7,402.52 -146.6,406.64 322.3,35.78 487.5,-465.43 611,-641.94 79.7,-113.94 376.6,-292.336 495.4,-334.406" style="fill:#fefefe;fill-opacity:1;fill-rule:evenodd;stroke:none" transform="matrix(0.13333333,0,0,-0.13333333,0,3201.3333)" />
    <path id="path36" d="m 22118.7,7373.54 c 30.9,14.44 86.7,140.36 76.4,216.73 -10.4,76.37 -33.1,130.03 -62,111.46 -83.8,-53.89 -29.2,-335.1 -14.4,-328.19" style="fill:#fefefe;fill-opacity:1;fill-rule:evenodd;stroke:none" transform="matrix(0.13333333,0,0,-0.13333333,0,3201.3333)" />
    <path id="path37" d="m 22112.5,4207.18 c 82,96.95 119.2,357.1 10.3,357.1 -60.5,0 -22.7,-371.76 -10.3,-357.1" style="fill:#fefefe;fill-opacity:1;fill-rule:evenodd;stroke:none" transform="matrix(0.13333333,0,0,-0.13333333,0,3201.3333)" />
    <path id="path38" d="m 15868.1,4492.28 c 1.7,-104.31 4.5,-284.03 -8.9,-284.03 -93.3,0 -87.1,261.49 -52.6,314.78 54.3,84.03 60.7,18.96 61.5,-30.75" style="fill:#fefefe;fill-opacity:1;fill-rule:evenodd;stroke:none" transform="matrix(0.13333333,0,0,-0.13333333,0,3201.3333)" />
    <path id="path39" d="m 15863.1,7673.21 c -0.6,-62.13 -2.1,-164.69 -3.1,-228.1 -0.7,-47.61 5.4,-86.23 -42.7,-22.11 -39.9,53.33 -44.9,145.79 -29.6,205.38 9.3,36.19 76.2,136.15 75.4,44.83" style="fill:#fefefe;fill-opacity:1;fill-rule:evenodd;stroke:none" transform="matrix(0.13333333,0,0,-0.13333333,0,3201.3333)" />
    <path id="path40" d="m 20486.4,14844.5 244.1,-2941.1" style="fill:none;stroke:#fefefe;stroke-width:26.4189;stroke-linecap:butt;stroke-linejoin:miter;stroke-miterlimit:22.9256;stroke-dasharray:none;stroke-opacity:1" transform="matrix(0.13333333,0,0,-0.13333333,0,3201.3333)" />
    <path id="path41" d="m 17504.1,14834.9 -266.2,-2939.7" style="fill:none;stroke:#fefefe;stroke-width:26.4189;stroke-linecap:butt;stroke-linejoin:miter;stroke-miterlimit:22.9256;stroke-dasharray:none;stroke-opacity:1" transform="matrix(0.13333333,0,0,-0.13333333,0,3201.3333)" />
    <path id="path42" d="m 16453.5,11209.9 c -393.1,185 -429.2,290.6 -416.4,667.6 15.1,444.6 67.9,1038.3 172.7,1382.6" style="fill:none;stroke:#fefefe;stroke-width:26.4189;stroke-linecap:butt;stroke-linejoin:miter;stroke-miterlimit:22.9256;stroke-dasharray:none;stroke-opacity:1" transform="matrix(0.13333333,0,0,-0.13333333,0,3201.3333)" />
    <path id="path43" d="m 21510.6,11218.3 c 407.1,184.6 403.3,255.2 399.3,634.3 -5.4,499.2 -32.9,907 -164.7,1431.8" style="fill:none;stroke:#fefefe;stroke-width:26.4189;stroke-linecap:butt;stroke-linejoin:miter;stroke-miterlimit:22.9256;stroke-dasharray:none;stroke-opacity:1" transform="matrix(0.13333333,0,0,-0.13333333,0,3201.3333)" />
    <path id="path44" d="m 16870.2,8550.57 c 239.6,-1934.95 242.8,-4119.64 267.9,-6075.38" style="fill:none;stroke:#fefefe;stroke-width:26.4189;stroke-linecap:butt;stroke-linejoin:miter;stroke-miterlimit:22.9256;stroke-dasharray:none;stroke-opacity:1" transform="matrix(0.13333333,0,0,-0.13333333,0,3201.3333)" />
    <path id="path45" d="M 21080.8,8568.94 C 20805.8,6689.68 20864.6,4389 20813.2,2459.75" style="fill:none;stroke:#fefefe;stroke-width:26.4189;stroke-linecap:butt;stroke-linejoin:miter;stroke-miterlimit:22.9256;stroke-dasharray:none;stroke-opacity:1" transform="matrix(0.13333333,0,0,-0.13333333,0,3201.3333)" />
    <path id="path46" d="m 16795.2,2327.34 c 159.4,379.34 4300.2,196.83 4388.9,54.54 34.7,-55.66 21.3,-59.28 21.3,-59.28" style="fill:none;stroke:#fefefe;stroke-width:26.4189;stroke-linecap:butt;stroke-linejoin:miter;stroke-miterlimit:22.9256;stroke-dasharray:none;stroke-opacity:1" transform="matrix(0.13333333,0,0,-0.13333333,0,3201.3333)" />
    <path id="path47" d="m 15853.6,3661.71 c 164.8,-166.28 227.2,-184.76 459.6,-165.17" style="fill:none;stroke:#fefefe;stroke-width:26.4189;stroke-linecap:butt;stroke-linejoin:miter;stroke-miterlimit:22.9256;stroke-dasharray:none;stroke-opacity:1" transform="matrix(0.13333333,0,0,-0.13333333,0,3201.3333)" />
    <path id="path48" d="m 16764.7,6481.29 c -281.6,128.86 -568.7,293.82 -858.7,392.19" style="fill:none;stroke:#fefefe;stroke-width:26.4189;stroke-linecap:butt;stroke-linejoin:miter;stroke-miterlimit:22.9256;stroke-dasharray:none;stroke-opacity:1" transform="matrix(0.13333333,0,0,-0.13333333,0,3201.3333)" />
    <path id="path49" d="m 21266,6490.75 c 16.2,0.47 683.1,337.38 849,398.38" style="fill:none;stroke:#fefefe;stroke-width:26.4189;stroke-linecap:butt;stroke-linejoin:miter;stroke-miterlimit:22.9256;stroke-dasharray:none;stroke-opacity:1" transform="matrix(0.13333333,0,0,-0.13333333,0,3201.3333)" />
    <path id="path50" d="M 22114.7,3660.86 C 21948,3497.03 21883,3466.72 21648.8,3520.59" style="fill:none;stroke:#fefefe;stroke-width:26.4189;stroke-linecap:butt;stroke-linejoin:miter;stroke-miterlimit:22.9256;stroke-dasharray:none;stroke-opacity:1" transform="matrix(0.13333333,0,0,-0.13333333,0,3201.3333)" />
    <path id="path51" d="m 8559.03,8005.89 c 1089.52,-34.59 1861.97,-5.73 2040.67,-155.61 448.5,-376.14 755.7,-1219.83 861.7,-1504.62 44.9,-120.7 33.2,-124.67 62.4,-12.22 13.1,50.63 24.5,81.43 55.9,81.43 288.9,0 692.8,-78.64 718.5,-402.09 6.9,-87.12 5.5,-168.13 -46.9,-206.08 -83.6,-60.53 -294,-112.42 -383.4,-103.77 -49.9,4.82 7.3,-67.73 83,-194.03 299.4,-499.27 457.2,-1413.07 404.2,-1967.71 -46.9,-489.97 -109.5,-856.1 -144.2,-1108.23 -50.2,-364.52 36.5,-1635.284 -57.6,-1733.71 -64.2,-67.098 -1069.7,-283.43 -1029,201.762 8.7,103.718 10.3,473.688 4.5,696.568 -5.8,224.78 26.9,172.42 -199.7,172.42 -985.42,0.02 -5572.99,31.48 -6433.33,14.38 -177.68,-3.52 -138.2,26.63 -129.07,-138.44 14.8,-267.44 19.93,-900.022 -79.35,-981.245 -126.81,-103.754 -959.81,-138.343 -971.33,49.004 -45.2,734.331 33.61,1199.801 -101.87,1940.901 -108,590.76 -110.44,2609.01 375.57,2973.53 115.81,86.85 -174.97,69.85 -335.72,155.52 -189.47,101 -104.76,357.85 83.82,509.45 130.18,104.68 601.29,229.83 617.93,46.99 8.64,-95.12 60.53,37.46 103.76,123.93 231.15,462.29 457.15,1365.49 1054.2,1448.38 732.47,101.75 3077.58,105.16 3445.32,93.49" style="fill:#000000;fill-opacity:1;fill-rule:evenodd;stroke:none" transform="matrix(0.13333333,0,0,-0.13333333,0,3201.3333)" />
    <path id="path52" d="m 4804.4,7455.85 c 230.58,149.88 3331.99,138.35 3868.1,126.82 536.11,-11.53 1974.4,-25.92 2083.9,-146.97 94.8,-104.73 495.9,-865.36 553.8,-1115.22 58.4,-252.08 -824.3,-244.71 -940,-245.24 -494.11,-2.23 -6283.74,-98.14 -6176.86,128.28 139.59,295.75 361.07,1089.84 611.06,1252.33" style="fill:#fefefe;fill-opacity:1;fill-rule:evenodd;stroke:none" transform="matrix(0.13333333,0,0,-0.13333333,0,3201.3333)" />
    <path id="path53" d="m 3887.39,5814.57 c 235.8,-10.42 983.75,-54.89 1196.47,-204.77 253.64,-178.7 351.63,-634.1 216.17,-651.41 -115.44,-14.74 -1438.6,-35.75 -1816.59,-13.1 -138.84,8.3 -102.08,0.75 -61.91,135.15 79.65,266.45 212.52,745.33 465.86,734.13" style="fill:#fefefe;fill-opacity:1;fill-rule:evenodd;stroke:none" transform="matrix(0.13333333,0,0,-0.13333333,0,3201.3333)" />
    <path id="path54" d="m 11868.3,4910.72 c -485,-9.11 -1677.3,-20.88 -1723.1,82.33 -39,87.66 39.2,310.95 149.2,472.29 201.9,296.16 738.3,310.3 1064.2,326.12 296.9,14.42 400.7,-23.05 469.9,-147 168.8,-302.6 499.5,-725.1 39.8,-733.74" style="fill:#fefefe;fill-opacity:1;fill-rule:evenodd;stroke:none" transform="matrix(0.13333333,0,0,-0.13333333,0,3201.3333)" />
    <path id="path55" d="m 10900.7,4928.7 c -23.6,-538.41 -564.4,-1041.81 -1127.13,-1042.87 l -4012.18,-7.57 c -694.48,-1.31 -945.2,511.15 -1170.55,1086.82" style="fill:none;stroke:#fefefe;stroke-width:36.8911;stroke-linecap:butt;stroke-linejoin:miter;stroke-miterlimit:22.9256;stroke-dasharray:none;stroke-opacity:1" transform="matrix(0.13333333,0,0,-0.13333333,0,3201.3333)" />
    <path id="path56" d="m 4446.96,1783.39 c -35.25,295.19 -77,503.34 224.91,522.79 896.49,57.81 5210.72,44.41 6064.43,27.71 130,-2.54 273.4,0.52 273.4,-186.94 0,-112.41 -2.1,-374.83 -2.1,-374.83" style="fill:none;stroke:#fefefe;stroke-width:36.8911;stroke-linecap:butt;stroke-linejoin:miter;stroke-miterlimit:22.9256;stroke-dasharray:none;stroke-opacity:1" transform="matrix(0.13333333,0,0,-0.13333333,0,3201.3333)" />
    <path id="path57" d="m 10070.1,2236.31 h 645.6 v -417.94 h -645.6 v 417.94" style="fill:#fefefe;fill-opacity:1;fill-rule:evenodd;stroke:none" transform="matrix(0.13333333,0,0,-0.13333333,0,3201.3333)" />
    <path id="path58" d="m 10397.5,1899.98 c 73.4,0 132.8,59.45 132.8,132.78 0,73.33 -59.4,132.77 -132.8,132.77 -73.3,0 -132.7,-59.44 -132.7,-132.77 0,-73.33 59.4,-132.78 132.7,-132.78" style="fill:#000000;fill-opacity:1;fill-rule:evenodd;stroke:none" transform="matrix(0.13333333,0,0,-0.13333333,0,3201.3333)" />
    <path id="path59" d="m 4713.02,2236.31 h 645.65 v -417.94 h -645.65 v 417.94" style="fill:#fefefe;fill-opacity:1;fill-rule:evenodd;stroke:none" transform="matrix(0.13333333,0,0,-0.13333333,0,3201.3333)" />
    <path id="path60" d="m 5040.45,1899.98 c 73.34,0 132.77,59.45 132.77,132.78 0,73.33 -59.43,132.77 -132.77,132.77 -73.32,0 -132.76,-59.44 -132.76,-132.77 0,-73.33 59.44,-132.78 132.76,-132.78" style="fill:#000000;fill-opacity:1;fill-rule:evenodd;stroke:none" transform="matrix(0.13333333,0,0,-0.13333333,0,3201.3333)" />
    <path id="path61" d="m 11645.1,6240.7 c 0,0 -23,-389.11 31.8,-386.24 54.7,2.88 495.7,-28.83 513,49 83.6,376.13 -522.1,471.07 -539,403.53 -8.6,-34.59 -5.8,-66.29 -5.8,-66.29" style="fill:#fefefe;fill-opacity:1;fill-rule:evenodd;stroke:none" transform="matrix(0.13333333,0,0,-0.13333333,0,3201.3333)" />
    <path id="path62" d="m 3829.26,6220.61 c -14.93,-124.18 -44.08,-328.03 -75.95,-345.95 -46.12,-25.93 -392,-57.64 -409.29,-2.88 -105.03,332.44 105.65,392.95 403.52,449.65 117.66,22.39 92.33,-12.72 81.72,-100.82" style="fill:#fefefe;fill-opacity:1;fill-rule:evenodd;stroke:none" transform="matrix(0.13333333,0,0,-0.13333333,0,3201.3333)" />
    <path id="path63" d="m 6087.14,5275.82 3366.57,-5.31 c 166.74,-0.27 136.31,14.95 69.15,-148.17 L 9222,4391.7 c -47.81,-116.11 -19.39,-101.28 -142.96,-101.89 l -2738.27,-13.46 c -120.73,-0.59 -90.51,-4.98 -127.74,118.08 l -218.11,720.87 c -54.4,179.81 -86.17,160.79 92.22,160.52" style="fill:#a1a1a1;fill-opacity:1;fill-rule:evenodd;stroke:none" transform="matrix(0.13333333,0,0,-0.13333333,0,3201.3333)" />
    <path id="path64" d="m 7072.8,21145.1 c 786.62,452.5 2555.93,1426.7 3549.3,1632.9 1304,270.8 2972.7,431.1 4785.1,326.1 1591.6,-92.2 3784,-399.6 4294.5,-527.4 277.1,-69.3 -60.6,-150.9 26.4,-237.9 42.5,-42.5 1067.8,-865.4 1499.5,-1321.9 462.3,-488.9 75.6,-1312 263.2,-1534.8 730.1,-866.9 265.3,-2193.7 -1087.9,-2207.6 -220.6,-2.3 -151.2,-25.9 -157.1,192.4 -19.3,715.5 -411,1462.5 -1008.8,1785.5 -580.8,313.8 -1524.4,124.7 -2042.3,-356.6 -406.8,-378 -517.2,-1026.1 -533.3,-1557.4 -11,-364.7 55.2,-328.8 -91.2,-342.6 -136.2,-12.8 -8093.48,-35.2 -9202.16,-38.3 -161.77,-0.4 -128.8,-33.7 -115.13,109.1 25.97,271.4 62.55,988.9 -205.97,1481.9 -454.71,834.9 -1576.49,1097.6 -2394.49,725.8 -616.38,-280.2 -942.88,-849 -1017.6,-1504.8 -25.73,-225.9 -11.5,-408.9 8.2,-532.9 34.55,-217.3 103.77,-182 -98.81,-176.7 -380.08,10.1 -1421.39,46.4 -1728.18,148.3 -194.77,64.6 -126.79,393.5 -24,514.3 91.94,108.1 176.09,445.9 -47.37,528.7 -42.08,15.6 -81.2,63.9 -79.76,200.7 19.84,1883 3109.07,2268.3 4520.62,2409.5 599.54,59.9 384.84,-5.3 887.25,283.7" style="fill:#000000;fill-opacity:1;fill-rule:evenodd;stroke:none" transform="matrix(0.13333333,0,0,-0.13333333,0,3201.3333)" />
    <path id="path65" d="m 2170.32,19106.8 c 552,-63.4 1886.27,526 1895.23,975.3 3.45,172.7 -1104.27,-66.2 -1633.24,-336.6 -178.26,-91.1 -588.74,-516.3 -588.74,-680.8 0,-86.5 178.83,59.1 326.75,42.1" style="fill:#fefefe;fill-opacity:1;fill-rule:evenodd;stroke:none" transform="matrix(0.13333333,0,0,-0.13333333,0,3201.3333)" />
    <path id="path66" d="m 7349.64,21092.5 c 315.68,186.2 1010.47,587.7 1515.39,844.8 596.76,303.9 1444.97,665.9 1509.87,678.3 64.9,12.5 5.5,77.4 -92.6,48.4 -98,-29 -881.3,-326 -1374.46,-577.4 -493.15,-251.4 -2062.43,-1074.7 -2051.38,-1116.2 20.96,-78.5 403.39,69.2 493.18,122.1" style="fill:#fefefe;fill-opacity:1;fill-rule:evenodd;stroke:none" transform="matrix(0.13333333,0,0,-0.13333333,0,3201.3333)" />
    <path id="path67" d="m 8595.95,21442.7 c 851.61,594.9 1935.95,1062.9 3004.65,1240.5 358.2,59.5 1101.4,124.7 1472,89.5 77.3,-7.3 76,32.5 45.5,-77.3 l -455.9,-1641.1 c -27,-97.4 -1.4,-77.9 -100.6,-86 -530.7,-43 -3573.89,-287.9 -3573.89,-245 0,47 24.84,522.2 -69.09,560.8 -253.07,104.2 -565.4,-11 -322.67,158.6" style="fill:#fefefe;fill-opacity:1;fill-rule:evenodd;stroke:none" transform="matrix(0.13333333,0,0,-0.13333333,0,3201.3333)" />
    <path id="path68" d="m 7808.59,20589.3 c 41.43,0 818.44,-2.7 743.85,33.2 -74.6,35.9 -339.82,-24.9 -406.13,160.2 -66.31,185.1 160.23,370.2 176.81,425.5 16.58,55.2 -88.41,42.8 -139.53,-20.7 -61.81,-76.8 -463.67,-598.2 -375,-598.2 z" style="fill:none;stroke:#232222;stroke-width:35.3606;stroke-linecap:butt;stroke-linejoin:miter;stroke-miterlimit:22.9256;stroke-dasharray:none;stroke-opacity:1" transform="matrix(0.13333333,0,0,-0.13333333,0,3201.3333)" />
    <path id="path69" d="m 7808.59,20589.3 c 41.43,0 818.44,-2.7 743.85,33.2 -74.6,35.9 -339.82,-24.9 -406.13,160.2 -66.31,185.1 160.23,370.2 176.81,425.5 16.58,55.2 -88.41,42.8 -139.53,-20.7 -61.81,-76.8 -463.67,-598.2 -375,-598.2" style="fill:#fefefe;fill-opacity:1;fill-rule:evenodd;stroke:none" transform="matrix(0.13333333,0,0,-0.13333333,0,3201.3333)" />
    <path id="path70" d="m 13816,22766.8 c 509.7,-6.5 3104.8,-48.9 3079.9,-228.2 -21.9,-157.6 -130.4,-947.8 -174.6,-1269.6 -24.3,-176.7 17.5,-134.8 -170.8,-145 -564,-30.5 -2524.2,-134 -2919.5,-120 -90,3.2 -72.3,-1.5 -65,89.4 23.8,297.1 127.9,1322 156.5,1602.8 9.6,94.3 -11.7,72 93.5,70.6" style="fill:#fefefe;fill-opacity:1;fill-rule:evenodd;stroke:none" transform="matrix(0.13333333,0,0,-0.13333333,0,3201.3333)" />
    <path id="path71" d="m 17178.4,22549.8 c 212.7,-5.4 583.6,-38.1 607.1,-199.1 69.7,-476 35.3,-970.7 -346.1,-1146.8 -178.4,-82.4 -344,-66.1 -531.9,-61.3 -54.7,1.4 -46.1,-10.9 -39.9,40.5 l 152.5,1272.7 c 15.2,127.4 -0.7,98 158.3,94" style="fill:#fefefe;fill-opacity:1;fill-rule:evenodd;stroke:none" transform="matrix(0.13333333,0,0,-0.13333333,0,3201.3333)" />
    <path id="path72" d="m 19076.8,22223.4 c 315.4,-252.9 1311.2,-1047.9 1369.3,-1053.7 69,-6.9 576,-40 576,-17.9 0,22.1 -519.4,477.9 -519.4,477.9 0,0 -627.4,528.1 -801.6,668.2 -63.6,51.1 -59.6,36.9 -149.5,33.6 -131.8,-4.7 -353.8,-18.1 -478.2,-26 -126.8,-7.9 -110.8,9.5 3.4,-82.1" style="fill:#fefefe;fill-opacity:1;fill-rule:evenodd;stroke:none" transform="matrix(0.13333333,0,0,-0.13333333,0,3201.3333)" />
    <path id="path73" d="m 19933.6,20219.7 c 380.9,1128.3 1390,730.2 1442.1,517.7 29.8,-121.3 34.9,-447.4 35.8,-555.7 0.4,-45.8 9.6,-35.2 -38.1,-36.9 -177.6,-6.3 -922.2,-32.5 -1155.2,-37.3 -120,-2.5 -195.8,0.7 -243,4.8 -99.3,8.9 -77,2.6 -41.6,107.4" style="fill:#fefefe;fill-opacity:1;fill-rule:evenodd;stroke:none" transform="matrix(0.13333333,0,0,-0.13333333,0,3201.3333)" />
    <path id="path74" d="m 20574.8,20695.8 c 188.3,32.7 575.1,37.8 635.2,-46.8 74.6,-105 35.9,-317.7 -41.4,-317.7 -77.4,0 -837.2,-58 -853.7,19.3 -16.9,78.6 116.1,320.3 259.9,345.2" style="fill:#a1a1a1;fill-opacity:1;fill-rule:evenodd;stroke:none" transform="matrix(0.13333333,0,0,-0.13333333,0,3201.3333)" />
    <path id="path75" d="m 17569.8,21279.5 c 311.1,-281.8 -430,-2863.1 -1769.5,-3655 -245.1,-144.9 -510.3,-229.9 -792.7,-229.9 -641,0 -7738.88,-76.5 -7738.88,-76.5" style="fill:none;stroke:#fefefe;stroke-width:35.3606;stroke-linecap:butt;stroke-linejoin:miter;stroke-miterlimit:22.9256;stroke-dasharray:none;stroke-opacity:1" transform="matrix(0.13333333,0,0,-0.13333333,0,3201.3333)" />
    <path id="path76" d="m 13468.7,22873.2 c -417.9,-2058.3 -719.3,-3343.6 -585.6,-5496.8" style="fill:none;stroke:#fefefe;stroke-width:35.3606;stroke-linecap:butt;stroke-linejoin:miter;stroke-miterlimit:22.9256;stroke-dasharray:none;stroke-opacity:1" transform="matrix(0.13333333,0,0,-0.13333333,0,3201.3333)" />
    <path id="path77" d="m 7689.55,20499.3 c -500.57,-727.5 -57.17,-2369.3 154.02,-3175.1" style="fill:none;stroke:#fefefe;stroke-width:35.3606;stroke-linecap:butt;stroke-linejoin:miter;stroke-miterlimit:22.9256;stroke-dasharray:none;stroke-opacity:1" transform="matrix(0.13333333,0,0,-0.13333333,0,3201.3333)" />
    <path id="path78" d="m 4285.23,19082.8 -733.03,452.9" style="fill:none;stroke:#fefefe;stroke-width:35.3606;stroke-linecap:butt;stroke-linejoin:miter;stroke-miterlimit:22.9256;stroke-dasharray:none;stroke-opacity:1" transform="matrix(0.13333333,0,0,-0.13333333,0,3201.3333)" />
    <path id="path79" d="m 4065.55,20082.1 3617.91,409.7" style="fill:none;stroke:#fefefe;stroke-width:35.3606;stroke-linecap:butt;stroke-linejoin:miter;stroke-miterlimit:22.9256;stroke-dasharray:none;stroke-opacity:1" transform="matrix(0.13333333,0,0,-0.13333333,0,3201.3333)" />
    <path id="path80" d="m 6545.1,20378.6 325.32,582.7" style="fill:none;stroke:#fefefe;stroke-width:35.3606;stroke-linecap:butt;stroke-linejoin:miter;stroke-miterlimit:22.9256;stroke-dasharray:none;stroke-opacity:1" transform="matrix(0.13333333,0,0,-0.13333333,0,3201.3333)" />
    <path id="path81" d="m 16445.4,20489.2 c 319.7,0 578.8,-60.6 578.8,-135.4 0,-74.8 -259.1,-135.4 -578.8,-135.4 -319.6,0 -578.8,60.6 -578.8,135.4 0,74.8 259.2,135.4 578.8,135.4" style="fill:#fefefe;fill-opacity:1;fill-rule:evenodd;stroke:none" transform="matrix(0.13333333,0,0,-0.13333333,0,3201.3333)" />
    <path id="path82" d="m 12044.5,20231.9 c 319.6,0 578.8,-60.6 578.8,-135.3 0,-74.8 -259.2,-135.4 -578.8,-135.4 -319.7,0 -578.8,60.6 -578.8,135.4 0,74.7 259.1,135.3 578.8,135.3" style="fill:#fefefe;fill-opacity:1;fill-rule:evenodd;stroke:none" transform="matrix(0.13333333,0,0,-0.13333333,0,3201.3333)" />
    <path id="path83" d="m 1869.24,17570.3 c 69.24,422.8 1080.44,861.7 1164.36,697.7 47.25,-92.4 -135.92,-536.3 -253.55,-735.1 -65.63,-111 -61.24,-100 -180.38,-99.1 -159.19,1.2 -455.49,12.3 -616.08,17.3 -111.48,3.5 -138.24,-26.6 -114.35,119.2" style="fill:#a1a1a1;fill-opacity:1;fill-rule:evenodd;stroke:none" transform="matrix(0.13333333,0,0,-0.13333333,0,3201.3333)" />
    <path id="path84" d="m 1963.51,18264 c 105.09,21.8 297.83,62.2 289.58,42.6 -11.04,-26.2 -363.3,-476.5 -361.92,-439.2 1.05,28.1 4.44,231.6 6.04,330.4 1.17,71.3 -11.63,50.1 66.3,66.2" style="fill:#a1a1a1;fill-opacity:1;fill-rule:evenodd;stroke:none" transform="matrix(0.13333333,0,0,-0.13333333,0,3201.3333)" />
    <path id="path85" d="m 16879.1,17628.4 c 11.4,-859.7 717.7,-1547.3 1577.4,-1535.9 859.7,11.4 1547.3,717.6 1535.9,1577.4 -11.4,859.7 -717.6,1547.3 -1577.3,1535.9 -859.8,-11.4 -1547.4,-717.6 -1536,-1577.4" style="fill:#000000;fill-opacity:1;fill-rule:evenodd;stroke:none" transform="matrix(0.13333333,0,0,-0.13333333,0,3201.3333)" />
    <path id="path86" d="m 17437.7,17635.9 c 7.3,-551.3 460.1,-992.2 1011.3,-984.8 551.3,7.3 992.2,460.1 984.9,1011.3 -7.4,551.3 -460.2,992.2 -1011.4,984.9 -551.2,-7.4 -992.2,-460.2 -984.8,-1011.4" style="fill:#fefefe;fill-opacity:1;fill-rule:evenodd;stroke:none" transform="matrix(0.13333333,0,0,-0.13333333,0,3201.3333)" />
    <path id="path87" d="m 19289.2,17458.1 c -131.4,37 -463.9,123.6 -443.2,45.4 25.8,-97.3 291.4,-331.9 358.6,-331 46,0.6 93.2,127.5 118.4,207.2 23.9,76 33.6,59.4 -33.8,78.4" style="fill:#000000;fill-opacity:1;fill-rule:evenodd;stroke:none" transform="matrix(0.13333333,0,0,-0.13333333,0,3201.3333)" />
    <path id="path88" d="m 18906.1,16933.2 c -73.2,115.2 -263,401.5 -299.8,329.5 -45.8,-89.7 -4.4,-441.7 46.3,-485.8 34.6,-30.3 154.5,32.7 226.4,75.4 68.5,40.6 64.7,21.7 27.1,80.9" style="fill:#000000;fill-opacity:1;fill-rule:evenodd;stroke:none" transform="matrix(0.13333333,0,0,-0.13333333,0,3201.3333)" />
    <path id="path89" d="m 18283.2,16819.1 c 20.3,135 64.8,475.6 -10.2,445.3 -93.4,-37.6 -293,-330.5 -283.8,-397 6.4,-45.6 138.2,-76.6 220.4,-91.6 78.4,-14.3 63.1,-26 73.6,43.3" style="fill:#000000;fill-opacity:1;fill-rule:evenodd;stroke:none" transform="matrix(0.13333333,0,0,-0.13333333,0,3201.3333)" />
    <path id="path90" d="m 17714.9,17168.4 c 114.1,75 397.3,269.4 324.7,305 -90.4,44.4 -441.7,-2.7 -485,-54 -29.7,-35.1 35.2,-154 79,-225.2 41.7,-67.8 22.8,-64.3 81.3,-25.8" style="fill:#000000;fill-opacity:1;fill-rule:evenodd;stroke:none" transform="matrix(0.13333333,0,0,-0.13333333,0,3201.3333)" />
    <path id="path91" d="m 17585.6,17818.4 c 135.2,-19 476.3,-59.9 445.2,14.8 -38.6,93 -333.5,289.6 -399.9,279.6 -45.5,-6.8 -75.2,-138.9 -89.3,-221.3 -13.5,-78.5 -25.4,-63.4 44,-73.1" style="fill:#000000;fill-opacity:1;fill-rule:evenodd;stroke:none" transform="matrix(0.13333333,0,0,-0.13333333,0,3201.3333)" />
    <path id="path92" d="m 17963.8,18353 c 77.4,-112.5 277.7,-391.6 311.8,-318.3 42.4,91.3 -11.9,441.5 -64.1,483.8 -35.8,28.9 -153.2,-38.4 -223.5,-83.7 -67,-43.1 -63.8,-24.1 -24.2,-81.8" style="fill:#000000;fill-opacity:1;fill-rule:evenodd;stroke:none" transform="matrix(0.13333333,0,0,-0.13333333,0,3201.3333)" />
    <path id="path93" d="m 18627.3,18488.9 c -31.9,-132.7 -105.4,-468.3 -28,-444.6 96.2,29.5 320.2,304.2 316.7,371.3 -2.5,45.9 -131.1,88.2 -211.7,110.2 -76.9,20.9 -60.7,31.2 -77,-36.9" style="fill:#000000;fill-opacity:1;fill-rule:evenodd;stroke:none" transform="matrix(0.13333333,0,0,-0.13333333,0,3201.3333)" />
    <path id="path94" d="m 19194.1,18108.7 c -116.7,-70.9 -406.8,-254.9 -335.5,-293.1 88.7,-47.6 441.5,-13.3 486.6,36.4 31,34.1 -29.6,155.1 -70.8,227.9 -39.2,69.4 -20.4,65.1 -80.3,28.8" style="fill:#000000;fill-opacity:1;fill-rule:evenodd;stroke:none" transform="matrix(0.13333333,0,0,-0.13333333,0,3201.3333)" />
    <path id="path95" d="m 18002.1,17640.3 c 3.3,-246.2 205.6,-443.2 451.8,-439.9 246.3,3.2 443.3,205.5 440,451.8 -3.3,246.2 -205.6,443.2 -451.8,439.9 -246.3,-3.2 -443.3,-205.5 -440,-451.8" style="fill:#fefefe;fill-opacity:1;fill-rule:evenodd;stroke:none" transform="matrix(0.13333333,0,0,-0.13333333,0,3201.3333)" />
    <path id="path96" d="m 18689.3,17591.4 c 52.4,0 94.9,42.4 94.9,94.8 0,52.4 -42.5,94.9 -94.9,94.9 -52.4,0 -94.9,-42.5 -94.9,-94.9 0,-52.4 42.5,-94.8 94.9,-94.8" style="fill:#000000;fill-opacity:1;fill-rule:evenodd;stroke:none" transform="matrix(0.13333333,0,0,-0.13333333,0,3201.3333)" />
    <path id="path97" d="m 18176.7,17554.6 c 52.4,0 94.9,42.4 94.9,94.8 0,52.4 -42.5,94.9 -94.9,94.9 -52.4,0 -94.8,-42.5 -94.8,-94.9 0,-52.4 42.4,-94.8 94.8,-94.8" style="fill:#000000;fill-opacity:1;fill-rule:evenodd;stroke:none" transform="matrix(0.13333333,0,0,-0.13333333,0,3201.3333)" />
    <path id="path98" d="m 18411.8,17783.9 c 52.4,0 94.8,42.5 94.8,94.9 0,52.4 -42.4,94.9 -94.8,94.9 -52.4,0 -94.9,-42.5 -94.9,-94.9 0,-52.4 42.5,-94.9 94.9,-94.9" style="fill:#000000;fill-opacity:1;fill-rule:evenodd;stroke:none" transform="matrix(0.13333333,0,0,-0.13333333,0,3201.3333)" />
    <path id="path99" d="m 18423.1,17379 c 52.4,0 94.9,42.4 94.9,94.8 0,52.4 -42.5,94.9 -94.9,94.9 -52.4,0 -94.9,-42.5 -94.9,-94.9 0,-52.4 42.5,-94.8 94.9,-94.8" style="fill:#000000;fill-opacity:1;fill-rule:evenodd;stroke:none" transform="matrix(0.13333333,0,0,-0.13333333,0,3201.3333)" />
    <path id="path100" d="m 3905.86,17628.4 c 11.41,-859.7 717.65,-1547.3 1577.35,-1535.9 859.71,11.4 1547.38,717.6 1535.95,1577.4 -11.44,859.7 -717.62,1547.3 -1577.36,1535.9 -859.71,-11.4 -1547.39,-717.6 -1535.94,-1577.4" style="fill:#000000;fill-opacity:1;fill-rule:evenodd;stroke:none" transform="matrix(0.13333333,0,0,-0.13333333,0,3201.3333)" />
    <path id="path101" d="m 4464.41,17635.9 c 7.31,-551.3 460.12,-992.2 1011.36,-984.8 551.24,7.3 992.16,460.1 984.84,1011.3 -7.34,551.3 -460.15,992.2 -1011.36,984.9 -551.24,-7.4 -992.2,-460.2 -984.84,-1011.4" style="fill:#fefefe;fill-opacity:1;fill-rule:evenodd;stroke:none" transform="matrix(0.13333333,0,0,-0.13333333,0,3201.3333)" />
    <path id="path102" d="m 6315.93,17458.1 c -131.38,37 -463.84,123.6 -443.16,45.4 25.73,-97.3 291.38,-331.9 358.54,-331 46.03,0.6 93.27,127.5 118.41,207.2 23.96,76 33.64,59.4 -33.79,78.4" style="fill:#000000;fill-opacity:1;fill-rule:evenodd;stroke:none" transform="matrix(0.13333333,0,0,-0.13333333,0,3201.3333)" />
    <path id="path103" d="m 5932.88,16933.2 c -73.19,115.2 -263.07,401.5 -299.82,329.5 -45.8,-89.7 -4.4,-441.7 46.24,-485.8 34.69,-30.3 154.53,32.7 226.46,75.4 68.52,40.6 64.65,21.7 27.12,80.9" style="fill:#000000;fill-opacity:1;fill-rule:evenodd;stroke:none" transform="matrix(0.13333333,0,0,-0.13333333,0,3201.3333)" />
    <path id="path104" d="m 5309.93,16819.1 c 20.34,135 64.81,475.6 -10.23,445.3 -93.37,-37.6 -292.97,-330.5 -283.71,-397 6.36,-45.6 138.16,-76.6 220.4,-91.6 78.36,-14.3 63.08,-26 73.54,43.3" style="fill:#000000;fill-opacity:1;fill-rule:evenodd;stroke:none" transform="matrix(0.13333333,0,0,-0.13333333,0,3201.3333)" />
    <path id="path105" d="m 4741.66,17168.4 c 114.08,75 397.29,269.4 324.66,305 -90.39,44.4 -441.68,-2.7 -484.99,-54 -29.69,-35.1 35.25,-154 79.01,-225.2 41.7,-67.8 22.81,-64.3 81.32,-25.8" style="fill:#000000;fill-opacity:1;fill-rule:evenodd;stroke:none" transform="matrix(0.13333333,0,0,-0.13333333,0,3201.3333)" />
    <path id="path106" d="m 4612.38,17818.4 c 135.17,-19 476.25,-59.9 445.21,14.8 -38.63,93 -333.53,289.6 -399.95,279.6 -45.53,-6.8 -75.2,-138.9 -89.34,-221.3 -13.46,-78.5 -25.31,-63.4 44.08,-73.1" style="fill:#000000;fill-opacity:1;fill-rule:evenodd;stroke:none" transform="matrix(0.13333333,0,0,-0.13333333,0,3201.3333)" />
    <path id="path107" d="m 4990.59,18353 c 77.36,-112.5 277.61,-391.6 311.75,-318.3 42.45,91.3 -11.89,441.5 -64.1,483.8 -35.76,28.9 -153.22,-38.4 -223.53,-83.7 -66.99,-43.1 -63.8,-24.1 -24.12,-81.8" style="fill:#000000;fill-opacity:1;fill-rule:evenodd;stroke:none" transform="matrix(0.13333333,0,0,-0.13333333,0,3201.3333)" />
    <path id="path108" d="m 5654.02,18488.9 c -31.84,-132.7 -105.32,-468.3 -27.98,-444.6 96.26,29.5 320.21,304.2 316.68,371.3 -2.43,45.9 -131.06,88.2 -211.72,110.2 -76.85,20.9 -60.64,31.2 -76.98,-36.9" style="fill:#000000;fill-opacity:1;fill-rule:evenodd;stroke:none" transform="matrix(0.13333333,0,0,-0.13333333,0,3201.3333)" />
    <path id="path109" d="m 6220.84,18108.7 c -116.7,-70.9 -406.79,-254.9 -335.49,-293.1 88.71,-47.6 441.48,-13.3 486.62,36.4 30.94,34.1 -29.63,155.1 -70.8,227.9 -39.2,69.4 -20.47,65.1 -80.33,28.8" style="fill:#000000;fill-opacity:1;fill-rule:evenodd;stroke:none" transform="matrix(0.13333333,0,0,-0.13333333,0,3201.3333)" />
    <path id="path110" d="m 5028.85,17640.3 c 3.28,-246.2 205.59,-443.2 451.84,-439.9 246.26,3.2 443.22,205.5 439.95,451.8 -3.28,246.2 -205.56,443.2 -451.82,439.9 -246.25,-3.2 -443.23,-205.5 -439.97,-451.8" style="fill:#fefefe;fill-opacity:1;fill-rule:evenodd;stroke:none" transform="matrix(0.13333333,0,0,-0.13333333,0,3201.3333)" />
    <path id="path111" d="m 5716.05,17591.4 c 52.39,0 94.86,42.4 94.86,94.8 0,52.4 -42.47,94.9 -94.86,94.9 -52.4,0 -94.87,-42.5 -94.87,-94.9 0,-52.4 42.47,-94.8 94.87,-94.8" style="fill:#000000;fill-opacity:1;fill-rule:evenodd;stroke:none" transform="matrix(0.13333333,0,0,-0.13333333,0,3201.3333)" />
    <path id="path112" d="m 5203.47,17554.6 c 52.41,0 94.87,42.4 94.87,94.8 0,52.4 -42.46,94.9 -94.87,94.9 -52.4,0 -94.87,-42.5 -94.87,-94.9 0,-52.4 42.47,-94.8 94.87,-94.8" style="fill:#000000;fill-opacity:1;fill-rule:evenodd;stroke:none" transform="matrix(0.13333333,0,0,-0.13333333,0,3201.3333)" />
    <path id="path113" d="m 5438.52,17783.9 c 52.39,0 94.87,42.5 94.87,94.9 0,52.4 -42.48,94.9 -94.87,94.9 -52.39,0 -94.87,-42.5 -94.87,-94.9 0,-52.4 42.48,-94.9 94.87,-94.9" style="fill:#000000;fill-opacity:1;fill-rule:evenodd;stroke:none" transform="matrix(0.13333333,0,0,-0.13333333,0,3201.3333)" />
    <path id="path114" d="m 5449.85,17379 c 52.4,0 94.87,42.4 94.87,94.8 0,52.4 -42.47,94.9 -94.87,94.9 -52.4,0 -94.87,-42.5 -94.87,-94.9 0,-52.4 42.47,-94.8 94.87,-94.8" style="fill:#000000;fill-opacity:1;fill-rule:evenodd;stroke:none" transform="matrix(0.13333333,0,0,-0.13333333,0,3201.3333)" />
    <path id="path115" d="m 12063.9,18686.9 c 2371.1,42.6 4295.4,-7 4298.1,-110.7 2.6,-103.8 -1917.5,-222.4 -4288.6,-265 -2371.11,-42.6 -4295.42,7 -4298.05,110.7 -2.62,103.8 1917.42,222.4 4288.55,265" style="fill:#a1a1a1;fill-opacity:1;fill-rule:evenodd;stroke:none" transform="matrix(0.13333333,0,0,-0.13333333,0,3201.3333)" />
    <path id="path116" d="m 12063.9,18686.9 c 2371.1,42.6 4295.4,-7 4298.1,-110.7 2.6,-103.8 -1917.5,-222.4 -4288.6,-265 -2371.11,-42.6 -4295.42,7 -4298.05,110.7 -2.62,103.8 1917.42,222.4 4288.55,265 z" style="fill:none;stroke:#a1a1a1;stroke-width:2.16;stroke-linecap:butt;stroke-linejoin:miter;stroke-miterlimit:22.9256;stroke-dasharray:none;stroke-opacity:1" transform="matrix(0.13333333,0,0,-0.13333333,0,3201.3333)" />
  </g>
  <g id="view_side">
    <circle id="side_hood" cx="280" cy="2810" r="14" fill="#B0BEC5" stroke="#FFFFFF" stroke-width="2" />
    <circle id="side_front_glass" cx="432" cy="2859" r="12" fill="#B0BEC5" stroke="#FFFFFF" stroke-width="2" />
    <circle id="side_front_bumper" cx="120" cy="3020" r="12" fill="#B0BEC5" stroke="#FFFFFF" stroke-width="2" />
    <circle id="side_front_left_door" cx="400" cy="2920" r="13" fill="#B0BEC5" stroke="#FFFFFF" stroke-width="2" />
    <circle id="side_front_left_light" cx="138" cy="2857" r="10" fill="#B0BEC5" stroke="#FFFFFF" stroke-width="2" />
    <circle id="side_back_glass" cx="850" cy="2780" r="11" fill="#B0BEC5" stroke="#FFFFFF" stroke-width="2" />
    <circle id="side_back_bumper" cx="1080" cy="2950" r="12" fill="#B0BEC5" stroke="#FFFFFF" stroke-width="2" />
    <circle id="side_back_left_door" cx="600" cy="2923" r="13" fill="#B0BEC5" stroke="#FFFFFF" stroke-width="2" />
    <circle id="side_back_left_light" cx="950" cy="2850" r="10" fill="#B0BEC5" stroke="#FFFFFF" stroke-width="2" />
    <circle id="side_trunk" cx="740" cy="2811" r="12" fill="#B0BEC5" stroke="#FFFFFF" stroke-width="2" />
    <circle id="side_left_mirror" cx="228" cy="2810" r="9" fill="#B0BEC5" stroke="#FFFFFF" stroke-width="2" />
    <circle id="side_wheel_front" cx="271" cy="3080" r="14" fill="#B0BEC5" stroke="#FFFFFF" stroke-width="2" />
    <circle id="side_wheel_rear" cx="628" cy="3080" r="14" fill="#B0BEC5" stroke="#FFFFFF" stroke-width="2" />
  </g>
  <g id="view_front">
    <circle id="front_hood" cx="575" cy="2320" r="14" fill="#B0BEC5" stroke="#FFFFFF" stroke-width="2" />
    <circle id="front_front_glass" cx="680" cy="2410" r="13" fill="#B0BEC5" stroke="#FFFFFF" stroke-width="2" />
    <circle id="front_front_bumper" cx="450" cy="2520" r="12" fill="#B0BEC5" stroke="#FFFFFF" stroke-width="2" />
    <circle id="front_front_left_light" cx="200" cy="2350" r="11" fill="#B0BEC5" stroke="#FFFFFF" stroke-width="2" />
    <circle id="front_front_right_light" cx="950" cy="2350" r="11" fill="#B0BEC5" stroke="#FFFFFF" stroke-width="2" />
    <circle id="front_wheel_l" cx="340" cy="2050" r="12" fill="#B0BEC5" stroke="#FFFFFF" stroke-width="2" />
    <circle id="front_wheel_r" cx="810" cy="2050" r="12" fill="#B0BEC5" stroke="#FFFFFF" stroke-width="2" />
    <circle id="front_front_door" cx="575" cy="2380" r="12" fill="#B0BEC5" stroke="#FFFFFF" stroke-width="2" />
    <circle id="front_front_light" cx="575" cy="2480" r="10" fill="#B0BEC5" stroke="#FFFFFF" stroke-width="2" />
  </g>
  <g id="view_rear">
    <circle id="rear_back_glass" cx="490" cy="1869" r="12" fill="#B0BEC5" stroke="#FFFFFF" stroke-width="2" />
    <circle id="rear_back_bumper" cx="150" cy="2015" r="12" fill="#B0BEC5" stroke="#FFFFFF" stroke-width="2" />
    <circle id="rear_back_left_light" cx="764" cy="1862" r="10" fill="#B0BEC5" stroke="#FFFFFF" stroke-width="2" />
    <circle id="rear_back_right_light" cx="1058" cy="1844" r="10" fill="#B0BEC5" stroke="#FFFFFF" stroke-width="2" />
    <circle id="rear_trunk" cx="518" cy="1900" r="13" fill="#B0BEC5" stroke="#FFFFFF" stroke-width="2" />
    <circle id="rear_tailgate" cx="335" cy="1881" r="11" fill="#B0BEC5" stroke="#FFFFFF" stroke-width="2" />
    <circle id="rear_wheel_l" cx="363" cy="2000" r="12" fill="#B0BEC5" stroke="#FFFFFF" stroke-width="2" />
    <circle id="rear_wheel_r" cx="1228" cy="2000" r="12" fill="#B0BEC5" stroke="#FFFFFF" stroke-width="2" />
    <circle id="rear_back_door" cx="400" cy="1920" r="12" fill="#B0BEC5" stroke="#FFFFFF" stroke-width="2" />
    <circle id="rear_back_light" cx="910" cy="1850" r="10" fill="#B0BEC5" stroke="#FFFFFF" stroke-width="2" />
  </g>
  <g id="view_top">
    <circle id="top_hood" cx="1330" cy="2450" r="14" fill="#B0BEC5" stroke="#FFFFFF" stroke-width="2" />
    <circle id="top_front_glass" cx="1320" cy="2200" r="12" fill="#B0BEC5" stroke="#FFFFFF" stroke-width="2" />
    <circle id="top_front_bumper" cx="1330" cy="2520" r="12" fill="#B0BEC5" stroke="#FFFFFF" stroke-width="2" />
    <circle id="top_front_left_door" cx="1180" cy="2100" r="12" fill="#B0BEC5" stroke="#FFFFFF" stroke-width="2" />
    <circle id="top_front_right_door" cx="1480" cy="2100" r="12" fill="#B0BEC5" stroke="#FFFFFF" stroke-width="2" />
    <circle id="top_front_left_light" cx="1250" cy="2480" r="9" fill="#B0BEC5" stroke="#FFFFFF" stroke-width="2" />
    <circle id="top_front_right_light" cx="1410" cy="2480" r="9" fill="#B0BEC5" stroke="#FFFFFF" stroke-width="2" />
    <circle id="top_back_glass" cx="1310" cy="1780" r="11" fill="#B0BEC5" stroke="#FFFFFF" stroke-width="2" />
    <circle id="top_back_bumper" cx="1330" cy="1720" r="12" fill="#B0BEC5" stroke="#FFFFFF" stroke-width="2" />
    <circle id="top_back_left_door" cx="1180" cy="1950" r="12" fill="#B0BEC5" stroke="#FFFFFF" stroke-width="2" />
    <circle id="top_back_right_door" cx="1480" cy="1950" r="12" fill="#B0BEC5" stroke="#FFFFFF" stroke-width="2" />
    <circle id="top_back_left_light" cx="1260" cy="1780" r="9" fill="#B0BEC5" stroke="#FFFFFF" stroke-width="2" />
    <circle id="top_back_right_light" cx="1400" cy="1780" r="9" fill="#B0BEC5" stroke="#FFFFFF" stroke-width="2" />
    <circle id="top_trunk" cx="1315" cy="1843" r="13" fill="#B0BEC5" stroke="#FFFFFF" stroke-width="2" />
    <circle id="top_tailgate" cx="1252" cy="1890" r="11" fill="#B0BEC5" stroke="#FFFFFF" stroke-width="2" />
    <circle id="top_left_mirror" cx="1150" cy="2150" r="9" fill="#B0BEC5" stroke="#FFFFFF" stroke-width="2" />
    <circle id="top_right_mirror" cx="1510" cy="2150" r="9" fill="#B0BEC5" stroke="#FFFFFF" stroke-width="2" />
    <circle id="top_wheel_fl" cx="1180" cy="2280" r="10" fill="#B0BEC5" stroke="#FFFFFF" stroke-width="2" />
    <circle id="top_wheel_fr" cx="1480" cy="2280" r="10" fill="#B0BEC5" stroke="#FFFFFF" stroke-width="2" />
    <circle id="top_wheel_rl" cx="1180" cy="1980" r="10" fill="#B0BEC5" stroke="#FFFFFF" stroke-width="2" />
    <circle id="top_wheel_rr" cx="1480" cy="1980" r="10" fill="#B0BEC5" stroke="#FFFFFF" stroke-width="2" />
    <circle id="top_front_light" cx="1330" cy="2500" r="10" fill="#B0BEC5" stroke="#FFFFFF" stroke-width="2" />
    <circle id="top_back_light" cx="1330" cy="1760" r="10" fill="#B0BEC5" stroke="#FFFFFF" stroke-width="2" />
  </g>
</svg>